<svg xmlns="http://www.w3.org/2000/svg" xmlns:svg="http://www.w3.org/2000/svg" xmlns:xlink="http://www.w3.org/1999/xlink" id="svg249" width="48" height="48" version="1.1"><defs id="defs3"><linearGradient id="linearGradient8624"><stop id="stop8626" offset="0" style="stop-color:#c00;stop-opacity:.56862748"/><stop style="stop-color:#c00;stop-opacity:.72156864" id="stop8628" offset=".11"/><stop id="stop8630" offset="1" style="stop-color:#c00;stop-opacity:.23137255"/></linearGradient><linearGradient id="linearGradient8598"><stop id="stop8600" offset="0" style="stop-color:#73d216;stop-opacity:.56862748"/><stop style="stop-color:#73d216;stop-opacity:.72156864" id="stop8602" offset=".11"/><stop id="stop8604" offset="1" style="stop-color:#73d216;stop-opacity:.23137255"/></linearGradient><linearGradient id="linearGradient8554"><stop id="stop8556" offset="0" style="stop-color:#3465a4;stop-opacity:.56862748"/><stop style="stop-color:#3465a4;stop-opacity:.72156864" id="stop8558" offset=".11"/><stop id="stop8560" offset="1" style="stop-color:#3465a4;stop-opacity:.23137255"/></linearGradient><linearGradient id="linearGradient5048"><stop style="stop-color:black;stop-opacity:0" id="stop5050" offset="0"/><stop id="stop5056" offset=".5" style="stop-color:black;stop-opacity:1"/><stop style="stop-color:black;stop-opacity:0" id="stop5052" offset="1"/></linearGradient><linearGradient id="linearGradient15662"><stop id="stop15664" offset="0" style="stop-color:#fff;stop-opacity:1"/><stop id="stop15666" offset="1" style="stop-color:#f8f8f8;stop-opacity:1"/></linearGradient><radialGradient id="aigrd3" cx="20.892" cy="64.568" r="5.257" fx="20.892" fy="64.568" gradientUnits="userSpaceOnUse"><stop style="stop-color:#f0f0f0" id="stop15573" offset="0"/><stop style="stop-color:#9a9a9a;stop-opacity:1" id="stop15575" offset="1"/></radialGradient><radialGradient id="aigrd2" cx="20.892" cy="114.568" r="5.256" fx="20.892" fy="114.568" gradientUnits="userSpaceOnUse"><stop style="stop-color:#f0f0f0" id="stop15566" offset="0"/><stop style="stop-color:#9a9a9a;stop-opacity:1" id="stop15568" offset="1"/></radialGradient><linearGradient id="linearGradient269"><stop id="stop270" offset="0" style="stop-color:#a3a3a3;stop-opacity:1"/><stop id="stop271" offset="1" style="stop-color:#4c4c4c;stop-opacity:1"/></linearGradient><linearGradient id="linearGradient259"><stop id="stop260" offset="0" style="stop-color:#fafafa;stop-opacity:1"/><stop id="stop261" offset="1" style="stop-color:#bbb;stop-opacity:1"/></linearGradient><linearGradient id="linearGradient2119"><stop style="stop-color:#d2b32a;stop-opacity:.56730771" id="stop2121" offset="0"/><stop id="stop2378" offset=".11" style="stop-color:#ffeb3f;stop-opacity:.72156864"/><stop style="stop-color:#fff493;stop-opacity:.23076923" id="stop2123" offset="1"/></linearGradient><linearGradient id="linearGradient7465" x1="333.571" x2="564.286" y1="459.005" y2="459.005" gradientTransform="matrix(0.04585646,0.049308,-0.05215187,0.04891569,81.398788,-22.432431)" gradientUnits="userSpaceOnUse" xlink:href="#linearGradient2119"/><linearGradient id="linearGradient7467" x1="336.156" x2="567" y1="504.344" y2="504.344" gradientTransform="matrix(0.04585646,0.049308,-0.05215187,0.04891569,81.398788,-22.432431)" gradientUnits="userSpaceOnUse" xlink:href="#linearGradient2119"/><linearGradient id="linearGradient8640" x1="333.571" x2="564.286" y1="459.005" y2="459.005" gradientTransform="matrix(0.04585646,0.049308,-0.05215187,0.04891569,-46.363212,17.578864)" gradientUnits="userSpaceOnUse" xlink:href="#linearGradient8624"/><linearGradient id="linearGradient8642" x1="336.156" x2="567" y1="504.344" y2="504.344" gradientTransform="matrix(0.04585646,0.049308,-0.05215187,0.04891569,-46.363212,17.578864)" gradientUnits="userSpaceOnUse" xlink:href="#linearGradient8624"/><linearGradient id="linearGradient8644" x1="333.571" x2="564.286" y1="459.005" y2="459.005" gradientTransform="matrix(0.04585646,0.049308,-0.05215187,0.04891569,-1.423616,-0.065427)" gradientUnits="userSpaceOnUse" xlink:href="#linearGradient8554"/><linearGradient id="linearGradient8646" x1="336.156" x2="567" y1="504.344" y2="504.344" gradientTransform="matrix(0.04585646,0.049308,-0.05215187,0.04891569,-1.423616,-0.065427)" gradientUnits="userSpaceOnUse" xlink:href="#linearGradient8554"/><linearGradient id="linearGradient8648" x1="333.571" x2="564.286" y1="459.005" y2="459.005" gradientTransform="matrix(0.04585646,0.049308,-0.05215187,0.04891569,-30.238212,6.828864)" gradientUnits="userSpaceOnUse" xlink:href="#linearGradient8598"/><linearGradient id="linearGradient8650" x1="336.156" x2="567" y1="504.344" y2="504.344" gradientTransform="matrix(0.04585646,0.049308,-0.05215187,0.04891569,-30.238212,6.828864)" gradientUnits="userSpaceOnUse" xlink:href="#linearGradient8598"/><linearGradient id="linearGradient2852" x1="27.366" x2="31.336" y1="26.58" y2="30.558" gradientUnits="userSpaceOnUse" xlink:href="#linearGradient2846"/><radialGradient id="radialGradient2842" cx="24.13" cy="37.968" r="16.529" fx="24.13" fy="37.968" gradientTransform="matrix(1,0,0,0.237968,0,28.93278)" gradientUnits="userSpaceOnUse" xlink:href="#linearGradient4477"/><linearGradient id="linearGradient2372" x1="18.293" x2="17.501" y1="13.602" y2="25.743" gradientUnits="userSpaceOnUse" xlink:href="#linearGradient2366"/><radialGradient id="radialGradient4493" cx="24.13" cy="37.968" r="16.529" fx="24.13" fy="37.968" gradientTransform="matrix(1,0,0,0.237968,0,28.93278)" gradientUnits="userSpaceOnUse" xlink:href="#linearGradient4487"/><radialGradient id="radialGradient4473" cx="15.414" cy="13.078" r="6.656" fx="15.414" fy="13.078" gradientTransform="matrix(2.592963,0,0,2.252104,-25.05975,-18.941)" gradientUnits="userSpaceOnUse" xlink:href="#linearGradient4467"/><radialGradient id="radialGradient4460" cx="18.241" cy="21.818" r="8.309" fx="18.241" fy="21.818" gradientUnits="userSpaceOnUse" xlink:href="#linearGradient4454"/><linearGradient id="linearGradient4446" x1="30.656" x2="33.219" y1="34" y2="31.063" gradientTransform="matrix(1.334593,0,0,1.291292,-6.973842,-7.460658)" gradientUnits="userSpaceOnUse" xlink:href="#linearGradient4440"/><linearGradient id="linearGradient4440"><stop id="stop4442" offset="0" style="stop-color:#7d7d7d;stop-opacity:1"/><stop style="stop-color:#b1b1b1;stop-opacity:1" id="stop4448" offset=".5"/><stop id="stop4444" offset="1" style="stop-color:#686868;stop-opacity:1"/></linearGradient><linearGradient id="linearGradient4454"><stop id="stop4456" offset="0" style="stop-color:#729fcf;stop-opacity:.20784314"/><stop id="stop4458" offset="1" style="stop-color:#729fcf;stop-opacity:.6761905"/></linearGradient><linearGradient id="linearGradient4467"><stop id="stop4469" offset="0" style="stop-color:#fff;stop-opacity:1"/><stop id="stop4471" offset="1" style="stop-color:#fff;stop-opacity:.24761905"/></linearGradient><linearGradient id="linearGradient4477"><stop id="stop4479" offset="0" style="stop-color:#000;stop-opacity:1"/><stop id="stop4481" offset="1" style="stop-color:#000;stop-opacity:0"/></linearGradient><linearGradient id="linearGradient4487"><stop id="stop4489" offset="0" style="stop-color:#fff;stop-opacity:1"/><stop id="stop4491" offset="1" style="stop-color:#fff;stop-opacity:0"/></linearGradient><linearGradient id="linearGradient2366"><stop style="stop-color:#fff;stop-opacity:1" id="stop2368" offset="0"/><stop id="stop2374" offset=".5" style="stop-color:#fff;stop-opacity:.21904762"/><stop style="stop-color:#fff;stop-opacity:1" id="stop2370" offset="1"/></linearGradient><linearGradient id="linearGradient2846"><stop style="stop-color:#8a8a8a;stop-opacity:1" id="stop2848" offset="0"/><stop style="stop-color:#484848;stop-opacity:1" id="stop2850" offset="1"/></linearGradient><radialGradient id="radialGradient16111" cx="24.13" cy="37.968" r="16.529" fx="24.13" fy="37.968" gradientTransform="matrix(1,0,0,0.237968,0,28.93278)" gradientUnits="userSpaceOnUse" xlink:href="#linearGradient4477"/><linearGradient id="linearGradient16113" x1="27.366" x2="31.336" y1="26.58" y2="30.558" gradientUnits="userSpaceOnUse" xlink:href="#linearGradient2846"/><linearGradient id="linearGradient16115" x1="30.656" x2="33.219" y1="34" y2="31.063" gradientTransform="matrix(1.334593,0,0,1.291292,-6.973842,-7.460658)" gradientUnits="userSpaceOnUse" xlink:href="#linearGradient4440"/><linearGradient id="linearGradient16117" x1="18.293" x2="17.501" y1="13.602" y2="25.743" gradientUnits="userSpaceOnUse" xlink:href="#linearGradient2366"/><radialGradient id="radialGradient16119" cx="24.13" cy="37.968" r="16.529" fx="24.13" fy="37.968" gradientTransform="matrix(1,0,0,0.237968,0,28.93278)" gradientUnits="userSpaceOnUse" xlink:href="#linearGradient4487"/><radialGradient id="radialGradient16121" cx="18.241" cy="21.818" r="8.309" fx="18.241" fy="21.818" gradientUnits="userSpaceOnUse" xlink:href="#linearGradient4454"/><radialGradient id="radialGradient16123" cx="15.414" cy="13.078" r="6.656" fx="15.414" fy="13.078" gradientTransform="matrix(2.592963,0,0,2.252104,-25.05975,-18.941)" gradientUnits="userSpaceOnUse" xlink:href="#linearGradient4467"/><radialGradient id="radialGradient16126" cx="15.414" cy="13.078" r="6.656" fx="15.414" fy="13.078" gradientTransform="matrix(2.592963,0,0,2.252104,-15.421344,38.511625)" gradientUnits="userSpaceOnUse" xlink:href="#linearGradient4467"/><linearGradient id="linearGradient16133" x1="30.656" x2="33.219" y1="34" y2="31.063" gradientTransform="matrix(1.334593,0,0,1.291292,2.6645639,49.991967)" gradientUnits="userSpaceOnUse" xlink:href="#linearGradient4440"/><linearGradient id="linearGradient16137" x1="27.366" x2="31.336" y1="26.58" y2="30.558" gradientTransform="translate(9.6384059,57.452625)" gradientUnits="userSpaceOnUse" xlink:href="#linearGradient2846"/><radialGradient id="radialGradient16140" cx="24.13" cy="37.968" r="16.529" fx="24.13" fy="37.968" gradientTransform="matrix(1,0,0,0.237968,0,28.93278)" gradientUnits="userSpaceOnUse" xlink:href="#linearGradient4477"/><linearGradient id="linearGradient16154" x1="4.446" x2="30.556" y1="18.92" y2="18.92" gradientUnits="userSpaceOnUse" xlink:href="#linearGradient2846"/><linearGradient id="linearGradient16156" x1="18.293" x2="17.501" y1="13.602" y2="25.743" gradientUnits="userSpaceOnUse" xlink:href="#linearGradient2366"/><linearGradient id="linearGradient16163" x1="4.446" x2="30.556" y1="18.92" y2="18.92" gradientUnits="userSpaceOnUse" xlink:href="#linearGradient2846"/><linearGradient id="linearGradient16165" x1="18.293" x2="17.501" y1="13.602" y2="25.743" gradientUnits="userSpaceOnUse" xlink:href="#linearGradient2366"/><linearGradient id="linearGradient16198" x1="4.446" x2="30.556" y1="18.92" y2="18.92" gradientUnits="userSpaceOnUse" xlink:href="#linearGradient2846"/><linearGradient id="linearGradient16200" x1="18.293" x2="17.501" y1="13.602" y2="25.743" gradientUnits="userSpaceOnUse" xlink:href="#linearGradient2366"/><clipPath id="clipPath16203" clipPathUnits="userSpaceOnUse"><rect style="fill:#c00;fill-opacity:1;stroke:#dcdcdc;stroke-width:0;stroke-linecap:butt;stroke-linejoin:miter;stroke-miterlimit:10;stroke-opacity:1;stroke-dasharray:none;stroke-dashoffset:0" id="rect16205" width="51.024" height="17.6" x="-29.513" y="63.225" transform="matrix(0.99199712,-0.1262605,0.1262605,0.99199712,0,0)"/></clipPath></defs><metadata id="metadata4"/><g id="layer5" style="display:inline"><g id="g16158" transform="matrix(0.8,0,0,0.8,25.035669,-32.664465)"><path style="color:#000;fill:none;stroke:url(#linearGradient16163);stroke-width:4.01366901;stroke-linecap:round;stroke-linejoin:miter;stroke-miterlimit:10;stroke-opacity:1;stroke-dasharray:none;stroke-dashoffset:0;marker:none;visibility:visible;display:inline;overflow:visible" id="path16146" d="m 28.549437,18.920233 c 0,6.101942 -4.946602,11.048544 -11.048544,11.048544 -6.101943,0 -11.0485443,-4.946602 -11.0485443,-11.048544 0,-6.101943 4.9466013,-11.0485442 11.0485443,-11.0485442 6.101942,0 11.048544,4.9466012 11.048544,11.0485442 z" transform="matrix(1.245743,0,0,1.245743,-33.78694,35.275592)"/><path id="path16144" d="m 28.549437,18.920233 c 0,6.101942 -4.946602,11.048544 -11.048544,11.048544 -6.101943,0 -11.0485443,-4.946602 -11.0485443,-11.048544 0,-6.101943 4.9466013,-11.0485442 11.0485443,-11.0485442 6.101942,0 11.048544,4.9466012 11.048544,11.0485442 z" transform="matrix(1.245743,0,0,1.245743,-33.78694,35.275592)" style="color:#000;fill:none;stroke:#dcdcdc;stroke-width:2.40820146;stroke-linecap:round;stroke-linejoin:miter;stroke-miterlimit:10;stroke-opacity:1;stroke-dasharray:none;stroke-dashoffset:0;marker:none;visibility:visible;display:inline;overflow:visible"/><path style="color:#000;fill:none;stroke:url(#linearGradient16165);stroke-width:.8027336;stroke-linecap:round;stroke-linejoin:miter;stroke-miterlimit:10;stroke-opacity:1;stroke-dasharray:none;stroke-dashoffset:0;marker:none;visibility:visible;display:inline;overflow:visible" id="path4450" d="m 28.549437,18.920233 c 0,6.101942 -4.946602,11.048544 -11.048544,11.048544 -6.101943,0 -11.0485443,-4.946602 -11.0485443,-11.048544 0,-6.101943 4.9466013,-11.0485442 11.0485443,-11.0485442 6.101942,0 11.048544,4.9466012 11.048544,11.0485442 z" transform="matrix(1.245743,0,0,1.245743,-33.78694,35.275592)"/></g><path id="path4475" d="m 40.65864,37.967922 a 16.528622,3.9332814 0 1 1 -33.0572434,0 16.528622,3.9332814 0 1 1 33.0572434,0 z" transform="matrix(1.446431,0,0,1.51999,-11.336124,-16.299055)" style="opacity:.17112301;color:#000;fill:url(#radialGradient16140);fill-opacity:1;fill-rule:evenodd;stroke:none;stroke-width:1;marker:none;visibility:visible;display:inline;overflow:visible"/><g id="g8632" transform="matrix(0,1,-1,0,80.994072,76.610493)"><path style="fill:#ef2929;fill-opacity:1;fill-rule:evenodd;stroke:none" id="path8572" d="m -55.007282,47.842831 c -2.639759,-2.83845 -7.175026,-2.882088 -10.136059,-0.104795 -2.961035,2.777293 -3.227032,7.324265 -0.587274,10.162715 1.980301,2.129354 5.028327,2.687439 7.680143,1.661762 l 0.834359,0.897161 1.996216,0.647276 -0.466555,0.997519 3.676179,3.519779 1.256755,-0.214473 -0.236983,1.311002 0.880714,0.947004 1.687014,-0.618032 -0.352822,1.419654 0.803458,0.863933 c 0.0061,0.0065 0.0069,0.0162 0.01545,0.01661 0.0086,4.18e-4 0.02508,0.0076 0.032,0.0011 0,0 3.133754,0.171346 3.133754,0.171346 0,2e-6 1.268467,-2.434012 1.268467,-2.434012 L -53.828449,55.540264 c 1.143411,-2.565748 0.775216,-5.596308 -1.178833,-7.697433 z m -5.242156,1.05967 0.200864,0.215983 c 0.528984,0.568799 0.479487,1.478864 -0.101125,2.023448 l -1.704481,1.598713 c -0.580613,0.544584 -1.471531,0.516579 -2.000514,-0.05222 l -0.200866,-0.215984 c -0.528983,-0.568798 -0.496036,-1.463343 0.08458,-2.007927 l 1.704479,-1.598712 c 0.580614,-0.544585 1.488082,-0.532101 2.017065,0.0367 z"/><path style="fill:url(#linearGradient8640);fill-opacity:1;fill-rule:evenodd;stroke:none" id="path8574" d="m -54.420325,55.975171 10.36962,11.484735 c 0.01216,0.01308 0.01308,0.03193 0.0021,0.04227 l -0.524128,0.491605 c -0.01102,0.01034 -0.02969,0.0081 -0.04185,-0.0049 l -10.36966,-11.484784 c -0.01216,-0.01308 -0.01308,-0.03193 -0.0021,-0.04227 l 0.52413,-0.491604 c 0.01102,-0.01034 0.02969,-0.0081 0.04185,0.0049 z"/><path style="fill:url(#linearGradient8642);fill-opacity:1;fill-rule:evenodd;stroke:none" id="path8576" d="M -45.770336,69.367611 -56.36183,58.028131 c -0.01069,-0.0115 -0.04435,0.0041 -0.0773,0.035 l -1.497736,1.404798 0.829622,0.892069 1.991607,0.64208 -0.463922,1.000589 3.663605,3.519387 1.277455,-0.21441 -0.255716,1.313054 0.878439,0.944556 1.694669,-0.605735 -0.360019,1.410884 0.813952,0.875218 c 0.0061,0.0065 0.01369,0.01042 0.02228,0.01084 0.0086,4.17e-4 0.01817,-0.0026 0.02509,-0.0091 0,0 1.124579,0.06612 2.049463,0.120267 z"/><path style="opacity:.45405405;fill:#c00;fill-opacity:1;fill-rule:evenodd;stroke:none" id="path8578" d="m -53.929456,54.724752 c -2.446216,-2.266344 -4.273881,-1.79471 -7.392629,-2.505413 l -0.554227,0.519835 c -0.589259,0.552694 -1.493444,0.524272 -2.030303,-0.053 l -0.203857,-0.219199 c -0.335279,-0.360516 -0.389945,-0.831147 -0.281329,-1.283038 -0.763302,-0.385167 -1.381718,-0.832369 -1.971191,-1.308085 -1.31757,2.508353 -1.036612,5.613844 0.923124,7.721088 2.502038,2.690365 6.804061,2.741762 9.603878,0.115683 0.910888,-0.854365 1.543571,-1.890113 1.906534,-2.987873 z"/><path style="fill:none;stroke:#ac8b0b;stroke-width:.72868884;stroke-linecap:butt;stroke-linejoin:round;stroke-miterlimit:4;stroke-opacity:1;stroke-dasharray:none" id="path8580" d="m -60.261971,48.903164 0.204392,0.219777 c 0.528984,0.568799 0.48742,1.465133 -0.09319,2.009716 l -1.704844,1.599053 c -0.580613,0.544583 -1.473898,0.52509 -2.00288,-0.04371 l -0.204393,-0.219777 c -0.528984,-0.568799 -0.487419,-1.465133 0.09319,-2.009717 l 1.704843,-1.599052 c 0.580612,-0.544585 1.473896,-0.52509 2.00288,0.04371 z"/><path id="path8582" d="m -55.007282,47.842831 c -2.639759,-2.83845 -7.175026,-2.882088 -10.136059,-0.104795 -2.961035,2.777293 -3.227032,7.324265 -0.587274,10.162715 1.980301,2.129354 5.028327,2.687439 7.680143,1.661762 l 0.834359,0.897161 2.260991,0.398932 -0.484113,1.51169 3.181742,2.988125 2.298296,-0.693679 -0.784086,2.321861 0.633496,0.681178 1.951788,-0.866375 -0.370378,1.933823 0.55624,0.598107 c 0.0061,0.0065 0.0069,0.0162 0.01545,0.01661 0.0086,4.18e-4 0.02508,0.0076 0.032,0.0011 0,0 3.133754,0.171346 3.133754,0.171346 0,2e-6 1.268467,-2.434012 1.268467,-2.434012 L -53.828449,55.540264 c 1.143411,-2.565748 0.775216,-5.596308 -1.178833,-7.697433 z m -5.242156,1.05967 0.200864,0.215983 c 0.528984,0.568799 0.479487,1.478864 -0.101125,2.023448 l -1.704481,1.598713 c -0.580613,0.544584 -1.471531,0.516579 -2.000514,-0.05222 l -0.200866,-0.215984 c -0.528983,-0.568798 -0.496036,-1.463343 0.08458,-2.007927 l 1.704479,-1.598712 c 0.580614,-0.544585 1.488082,-0.532101 2.017065,0.0367 z" style="fill:none;stroke:#a40000;stroke-width:1;stroke-linecap:butt;stroke-linejoin:miter;stroke-miterlimit:4;stroke-opacity:1;stroke-dasharray:none"/></g><g id="g7345" transform="translate(-39.390793,5.063703)"><path id="path2100" d="M 72.754718,7.8315357 C 70.114959,4.9930856 65.579692,4.9494479 62.618659,7.7267408 59.657624,10.504034 59.391627,15.051006 62.031385,17.889456 c 1.980301,2.129354 5.028327,2.687439 7.680143,1.661762 l 0.834359,0.897161 1.996216,0.647276 -0.466555,0.997519 3.676179,3.519779 1.256755,-0.214473 -0.236983,1.311002 0.880714,0.947004 1.687014,-0.618032 -0.352822,1.419654 0.803458,0.863933 c 0.0061,0.0065 0.0069,0.0162 0.01545,0.01661 0.0086,4.18e-4 0.02508,0.0076 0.032,0.0011 0,0 3.133754,0.171346 3.133754,0.171346 0,2e-6 1.268467,-2.434012 1.268467,-2.434012 L 73.933551,15.528969 c 1.143411,-2.565748 0.775216,-5.596308 -1.178833,-7.6974333 z m -5.242156,1.0596703 0.200864,0.2159831 c 0.528984,0.5687986 0.479487,1.4788639 -0.101125,2.0234479 L 65.90782,12.72935 c -0.580613,0.544584 -1.471531,0.516579 -2.000514,-0.05222 L 63.70644,12.461146 c -0.528983,-0.568798 -0.496036,-1.463343 0.08458,-2.007927 l 1.704479,-1.5987123 c 0.580614,-0.5445842 1.488082,-0.5321002 2.017065,0.036699 z" style="fill:#dabf3c;fill-opacity:1;fill-rule:evenodd;stroke:none"/><path id="path2102" d="m 73.341675,15.963876 10.36962,11.484735 c 0.01216,0.01308 0.01308,0.03193 0.0021,0.04227 l -0.524128,0.491605 c -0.01102,0.01034 -0.02969,0.0081 -0.04185,-0.0049 L 72.777757,16.492802 c -0.01216,-0.01308 -0.01308,-0.03193 -0.0021,-0.04227 l 0.52413,-0.491604 c 0.01102,-0.01034 0.02969,-0.0081 0.04185,0.0049 z" style="fill:url(#linearGradient7465);fill-opacity:1;fill-rule:evenodd;stroke:none"/><path id="path2104" d="M 81.991664,29.356316 71.40017,18.016836 c -0.01069,-0.0115 -0.04435,0.0041 -0.0773,0.035 l -1.497736,1.404798 0.829622,0.892069 1.991607,0.64208 -0.463922,1.000589 3.663605,3.519387 1.277455,-0.21441 -0.255716,1.313054 0.878439,0.944556 1.694669,-0.605735 -0.360019,1.410884 0.813952,0.875218 c 0.0061,0.0065 0.01369,0.01042 0.02228,0.01084 0.0086,4.17e-4 0.01817,-0.0026 0.02509,-0.0091 0,0 1.124579,0.06612 2.049463,0.120267 z" style="fill:url(#linearGradient7467);fill-opacity:1;fill-rule:evenodd;stroke:none"/><path id="path2108" d="m 73.832544,14.713457 c -2.446216,-2.266344 -4.273881,-1.79471 -7.392629,-2.505413 l -0.554227,0.519835 c -0.589259,0.552694 -1.493444,0.524272 -2.030303,-0.053 L 63.651528,12.45568 c -0.335279,-0.360516 -0.389945,-0.831147 -0.281329,-1.283038 -0.763302,-0.385167 -1.381718,-0.832369 -1.971191,-1.3080854 -1.31757,2.5083534 -1.036612,5.6138444 0.923124,7.7210884 2.502038,2.690365 6.804061,2.741762 9.603878,0.115683 0.910888,-0.854365 1.543571,-1.890113 1.906534,-2.987873 z" style="opacity:.45405405;fill:#c4a00f;fill-opacity:1;fill-rule:evenodd;stroke:none"/><path id="path2110" d="m 67.500029,8.8918687 0.204392,0.2197769 c 0.528984,0.5687996 0.48742,1.4651334 -0.09319,2.0097164 l -1.704844,1.599053 c -0.580613,0.544583 -1.473898,0.52509 -2.00288,-0.04371 l -0.204393,-0.219777 c -0.528984,-0.568799 -0.487419,-1.465133 0.09319,-2.009717 l 1.704843,-1.5990523 c 0.580612,-0.5445844 1.473896,-0.5250896 2.00288,0.043709 z" style="fill:none;stroke:#ac8b0b;stroke-width:.72868884;stroke-linecap:butt;stroke-linejoin:round;stroke-miterlimit:4;stroke-opacity:1;stroke-dasharray:none"/><path style="fill:none;stroke:#ac8b0b;stroke-width:1;stroke-linecap:butt;stroke-linejoin:miter;stroke-miterlimit:4;stroke-opacity:1;stroke-dasharray:none" id="path2112" d="M 72.754718,7.8315357 C 70.114959,4.9930856 65.579692,4.9494479 62.618659,7.7267408 59.657624,10.504034 59.391627,15.051006 62.031385,17.889456 c 1.980301,2.129354 5.028327,2.687439 7.680143,1.661762 l 0.834359,0.897161 2.260991,0.398932 -0.484113,1.51169 3.181742,2.988125 2.298296,-0.693679 -0.784086,2.321861 0.633496,0.681178 1.951788,-0.866375 -0.370378,1.933823 0.55624,0.598107 c 0.0061,0.0065 0.0069,0.0162 0.01545,0.01661 0.0086,4.18e-4 0.02508,0.0076 0.032,0.0011 0,0 3.133754,0.171346 3.133754,0.171346 0,2e-6 1.268467,-2.434012 1.268467,-2.434012 L 73.933551,15.528969 c 1.143411,-2.565748 0.775216,-5.596308 -1.178833,-7.6974333 z m -5.242156,1.0596703 0.200864,0.2159831 c 0.528984,0.5687986 0.479487,1.4788639 -0.101125,2.0234479 L 65.90782,12.72935 c -0.580613,0.544584 -1.471531,0.516579 -2.000514,-0.05222 L 63.70644,12.461146 c -0.528983,-0.568798 -0.496036,-1.463343 0.08458,-2.007927 l 1.704479,-1.5987123 c 0.580614,-0.5445842 1.488082,-0.5321002 2.017065,0.036699 z"/></g><g id="g8606" transform="matrix(0.5,0.86602541,-0.86602541,0.5,84.638813,37.536818)"><path id="path7760" d="m -38.882282,37.092831 c -2.639759,-2.83845 -7.175026,-2.882088 -10.136059,-0.104795 -2.961035,2.777293 -3.227032,7.324265 -0.587274,10.162715 1.980301,2.129354 5.028327,2.687439 7.680143,1.661762 l 0.834359,0.897161 1.996216,0.647276 -0.466555,0.997519 3.676179,3.519779 1.256755,-0.214473 -0.236983,1.311002 0.880714,0.947004 1.687014,-0.618032 -0.352822,1.419654 0.803458,0.863933 c 0.0061,0.0065 0.0069,0.0162 0.01545,0.01661 0.0086,4.18e-4 0.02508,0.0076 0.032,0.0011 0,0 3.133754,0.171346 3.133754,0.171346 0,2e-6 1.268467,-2.434012 1.268467,-2.434012 L -37.703449,44.790264 c 1.143411,-2.565748 0.775216,-5.596308 -1.178833,-7.697433 z m -5.242156,1.05967 0.200864,0.215983 c 0.528984,0.568799 0.479487,1.478864 -0.101125,2.023448 l -1.704481,1.598713 c -0.580613,0.544584 -1.471531,0.516579 -2.000514,-0.05222 l -0.200866,-0.215984 c -0.528983,-0.568798 -0.496036,-1.463343 0.08458,-2.007927 l 1.704479,-1.598712 c 0.580614,-0.544584 1.488082,-0.532101 2.017065,0.0367 z" style="fill:#8ae234;fill-opacity:1;fill-rule:evenodd;stroke:none"/><path id="path7762" d="m -38.295325,45.225171 10.36962,11.484735 c 0.01216,0.01308 0.01308,0.03193 0.0021,0.04227 l -0.524128,0.491605 c -0.01102,0.01034 -0.02969,0.0081 -0.04185,-0.0049 l -10.36966,-11.484784 c -0.01216,-0.01308 -0.01308,-0.03193 -0.0021,-0.04227 l 0.52413,-0.491604 c 0.01102,-0.01034 0.02969,-0.0081 0.04185,0.0049 z" style="fill:url(#linearGradient8648);fill-opacity:1;fill-rule:evenodd;stroke:none"/><path id="path7764" d="M -29.645336,58.617611 -40.23683,47.278131 c -0.01069,-0.0115 -0.04435,0.0041 -0.0773,0.035 l -1.497736,1.404798 0.829622,0.892069 1.991607,0.64208 -0.463922,1.000589 3.663605,3.519387 1.277455,-0.21441 -0.255716,1.313054 0.878439,0.944556 1.694669,-0.605735 -0.360019,1.410884 0.813952,0.875218 c 0.0061,0.0065 0.01369,0.01042 0.02228,0.01084 0.0086,4.17e-4 0.01817,-0.0026 0.02509,-0.0091 0,0 1.124579,0.06612 2.049463,0.120267 z" style="fill:url(#linearGradient8650);fill-opacity:1;fill-rule:evenodd;stroke:none"/><path id="path7766" d="m -37.804456,43.974752 c -2.446216,-2.266344 -4.273881,-1.79471 -7.392629,-2.505413 l -0.554227,0.519835 c -0.589259,0.552694 -1.493444,0.524272 -2.030303,-0.053 l -0.203857,-0.219199 c -0.335279,-0.360516 -0.389945,-0.831147 -0.281329,-1.283038 -0.763302,-0.385167 -1.381718,-0.832369 -1.971191,-1.308085 -1.31757,2.508353 -1.036612,5.613844 0.923124,7.721088 2.502038,2.690365 6.804061,2.741762 9.603878,0.115683 0.910888,-0.854365 1.543571,-1.890113 1.906534,-2.987873 z" style="opacity:.45405405;fill:#73d216;fill-opacity:1;fill-rule:evenodd;stroke:none"/><path id="path7768" d="m -44.136971,38.153164 0.204392,0.219777 c 0.528984,0.568799 0.48742,1.465133 -0.09319,2.009716 l -1.704844,1.599053 c -0.580613,0.544583 -1.473898,0.52509 -2.00288,-0.04371 l -0.204393,-0.219777 c -0.528984,-0.568799 -0.487419,-1.465133 0.09319,-2.009717 l 1.704843,-1.599052 c 0.580612,-0.544585 1.473896,-0.52509 2.00288,0.04371 z" style="fill:none;stroke:#ac8b0b;stroke-width:.72868884;stroke-linecap:butt;stroke-linejoin:round;stroke-miterlimit:4;stroke-opacity:1;stroke-dasharray:none"/><path style="fill:none;stroke:#4e9a06;stroke-width:1;stroke-linecap:butt;stroke-linejoin:miter;stroke-miterlimit:4;stroke-opacity:1;stroke-dasharray:none" id="path7770" d="m -38.882282,37.092831 c -2.639759,-2.83845 -7.175026,-2.882088 -10.136059,-0.104795 -2.961035,2.777293 -3.227032,7.324265 -0.587274,10.162715 1.980301,2.129354 5.028327,2.687439 7.680143,1.661762 l 0.834359,0.897161 2.260991,0.398932 -0.484113,1.51169 3.181742,2.988125 2.298296,-0.693679 -0.784086,2.321861 0.633496,0.681178 1.951788,-0.866375 -0.370378,1.933823 0.55624,0.598107 c 0.0061,0.0065 0.0069,0.0162 0.01545,0.01661 0.0086,4.18e-4 0.02508,0.0076 0.032,0.0011 0,0 3.133754,0.171346 3.133754,0.171346 0,2e-6 1.268467,-2.434012 1.268467,-2.434012 L -37.703449,44.790264 c 1.143411,-2.565748 0.775216,-5.596308 -1.178833,-7.697433 z m -5.242156,1.05967 0.200864,0.215983 c 0.528984,0.568799 0.479487,1.478864 -0.101125,2.023448 l -1.704481,1.598713 c -0.580613,0.544584 -1.471531,0.516579 -2.000514,-0.05222 l -0.200866,-0.215984 c -0.528983,-0.568798 -0.496036,-1.463343 0.08458,-2.007927 l 1.704479,-1.598712 c 0.580614,-0.544584 1.488082,-0.532101 2.017065,0.0367 z"/></g><g id="g8562" transform="matrix(0.86602541,0.50000001,-0.50000001,0.86602541,57.792114,-0.77628284)"><path style="fill:#729fcf;fill-opacity:1;fill-rule:evenodd;stroke:none" id="path7742" d="m -10.067686,30.19854 c -2.639759,-2.83845 -7.175026,-2.882088 -10.136059,-0.104795 -2.961035,2.777293 -3.227032,7.324265 -0.587274,10.162715 1.980301,2.129354 5.028327,2.687439 7.680143,1.661762 l 0.834359,0.897161 1.996216,0.647276 -0.466555,0.997519 3.676179,3.519779 1.256755,-0.214473 -0.236983,1.311002 0.880714,0.947004 1.687014,-0.618032 -0.352822,1.419654 0.803458,0.863933 c 0.0061,0.0065 0.0069,0.0162 0.01545,0.01661 0.0086,4.18e-4 0.02508,0.0076 0.032,0.0011 0,0 3.133754,0.171346 3.133754,0.171346 0,2e-6 1.268467,-2.434012 1.268467,-2.434012 L -8.888853,37.895973 c 1.143411,-2.565748 0.775216,-5.596308 -1.178833,-7.697433 z m -5.242156,1.05967 0.200864,0.215983 c 0.528984,0.568799 0.479487,1.478864 -0.101125,2.023448 l -1.704481,1.598713 c -0.580613,0.544584 -1.471531,0.516579 -2.000514,-0.05222 l -0.200866,-0.215984 c -0.528983,-0.568798 -0.496036,-1.463343 0.08458,-2.007927 l 1.704479,-1.598712 c 0.580614,-0.544585 1.488082,-0.532101 2.017065,0.0367 z"/><path style="fill:url(#linearGradient8644);fill-opacity:1;fill-rule:evenodd;stroke:none" id="path7744" d="m -9.480729,38.33088 10.36962,11.484735 c 0.01216,0.01308 0.01308,0.03193 0.0021,0.04227 L 0.366863,50.34949 c -0.01102,0.01034 -0.02969,0.0081 -0.04185,-0.0049 l -10.36966,-11.484784 c -0.01216,-0.01308 -0.01308,-0.03193 -0.0021,-0.04227 l 0.52413,-0.491604 c 0.01102,-0.01034 0.02969,-0.0081 0.04185,0.0049 z"/><path style="fill:url(#linearGradient8646);fill-opacity:1;fill-rule:evenodd;stroke:none" id="path7746" d="M -0.83074,51.72332 -11.422234,40.38384 c -0.01069,-0.0115 -0.04435,0.0041 -0.0773,0.035 l -1.497736,1.404798 0.829622,0.892069 1.991607,0.64208 -0.463922,1.000589 3.663605,3.519387 1.277455,-0.21441 -0.255716,1.313054 0.878439,0.944556 1.694669,-0.605735 -0.360019,1.410884 0.813952,0.875218 c 0.0061,0.0065 0.01369,0.01042 0.02228,0.01084 0.0086,4.17e-4 0.01817,-0.0026 0.02509,-0.0091 0,0 1.124579,0.06612 2.049463,0.120267 z"/><path style="opacity:.45405405;fill:#3465af;fill-opacity:1;fill-rule:evenodd;stroke:none" id="path7748" d="m -8.98986,37.080461 c -2.446216,-2.266344 -4.273881,-1.79471 -7.392629,-2.505413 l -0.554227,0.519835 c -0.589259,0.552694 -1.493444,0.524272 -2.030303,-0.053 l -0.203857,-0.219199 c -0.335279,-0.360516 -0.389945,-0.831147 -0.281329,-1.283038 -0.763302,-0.385167 -1.381718,-0.832369 -1.971191,-1.308085 -1.31757,2.508353 -1.036612,5.613844 0.923124,7.721088 2.502038,2.690365 6.804061,2.741762 9.603878,0.115683 0.910888,-0.854365 1.543571,-1.890113 1.906534,-2.987873 z"/><path style="fill:none;stroke:#ac8b0b;stroke-width:.72868884;stroke-linecap:butt;stroke-linejoin:round;stroke-miterlimit:4;stroke-opacity:1;stroke-dasharray:none" id="path7750" d="m -15.322375,31.258873 0.204392,0.219777 c 0.528984,0.568799 0.48742,1.465133 -0.09319,2.009716 l -1.704844,1.599053 c -0.580613,0.544583 -1.473898,0.52509 -2.00288,-0.04371 l -0.204393,-0.219777 c -0.528984,-0.568799 -0.487419,-1.465133 0.09319,-2.009717 l 1.704843,-1.599052 c 0.580612,-0.544585 1.473896,-0.52509 2.00288,0.04371 z"/><path id="path7752" d="m -10.067686,30.19854 c -2.639759,-2.83845 -7.175026,-2.882088 -10.136059,-0.104795 -2.961035,2.777293 -3.227032,7.324265 -0.587274,10.162715 1.980301,2.129354 5.028327,2.687439 7.680143,1.661762 l 0.834359,0.897161 2.260991,0.398932 -0.484113,1.51169 3.181742,2.988125 2.298296,-0.693679 -0.784086,2.321861 0.633496,0.681178 1.951788,-0.866375 -0.370378,1.933823 0.55624,0.598107 c 0.0061,0.0065 0.0069,0.0162 0.01545,0.01661 0.0086,4.18e-4 0.02508,0.0076 0.032,0.0011 0,0 3.133754,0.171346 3.133754,0.171346 0,2e-6 1.268467,-2.434012 1.268467,-2.434012 L -8.888853,37.895973 c 1.143411,-2.565748 0.775216,-5.596308 -1.178833,-7.697433 z m -5.242156,1.05967 0.200864,0.215983 c 0.528984,0.568799 0.479487,1.478864 -0.101125,2.023448 l -1.704481,1.598713 c -0.580613,0.544584 -1.471531,0.516579 -2.000514,-0.05222 l -0.200866,-0.215984 c -0.528983,-0.568798 -0.496036,-1.463343 0.08458,-2.007927 l 1.704479,-1.598712 c 0.580614,-0.544585 1.488082,-0.532101 2.017065,0.0367 z" style="fill:none;stroke:#204a87;stroke-width:1;stroke-linecap:butt;stroke-linejoin:miter;stroke-miterlimit:4;stroke-opacity:1;stroke-dasharray:none"/></g><g id="g16167" clip-path="url(#clipPath16203)" transform="matrix(0.8,0,0,0.8,25.035669,-32.664465)"><path id="path16169" d="m 28.549437,18.920233 c 0,6.101942 -4.946602,11.048544 -11.048544,11.048544 -6.101943,0 -11.0485443,-4.946602 -11.0485443,-11.048544 0,-6.101943 4.9466013,-11.0485442 11.0485443,-11.0485442 6.101942,0 11.048544,4.9466012 11.048544,11.0485442 z" transform="matrix(1.245743,0,0,1.245743,-33.78694,35.275592)" style="color:#000;fill:none;stroke:url(#linearGradient16198);stroke-width:4.01366901;stroke-linecap:round;stroke-linejoin:miter;stroke-miterlimit:10;stroke-opacity:1;stroke-dasharray:none;stroke-dashoffset:0;marker:none;visibility:visible;display:inline;overflow:visible"/><path style="color:#000;fill:none;stroke:#dcdcdc;stroke-width:2.40820146;stroke-linecap:round;stroke-linejoin:miter;stroke-miterlimit:10;stroke-opacity:1;stroke-dasharray:none;stroke-dashoffset:0;marker:none;visibility:visible;display:inline;overflow:visible" id="path16171" d="m 28.549437,18.920233 c 0,6.101942 -4.946602,11.048544 -11.048544,11.048544 -6.101943,0 -11.0485443,-4.946602 -11.0485443,-11.048544 0,-6.101943 4.9466013,-11.0485442 11.0485443,-11.0485442 6.101942,0 11.048544,4.9466012 11.048544,11.0485442 z" transform="matrix(1.245743,0,0,1.245743,-33.78694,35.275592)"/><path id="path16173" d="m 28.549437,18.920233 c 0,6.101942 -4.946602,11.048544 -11.048544,11.048544 -6.101943,0 -11.0485443,-4.946602 -11.0485443,-11.048544 0,-6.101943 4.9466013,-11.0485442 11.0485443,-11.0485442 6.101942,0 11.048544,4.9466012 11.048544,11.0485442 z" transform="matrix(1.245743,0,0,1.245743,-33.78694,35.275592)" style="color:#000;fill:none;stroke:url(#linearGradient16200);stroke-width:.8027336;stroke-linecap:round;stroke-linejoin:miter;stroke-miterlimit:10;stroke-opacity:1;stroke-dasharray:none;stroke-dashoffset:0;marker:none;visibility:visible;display:inline;overflow:visible"/></g></g></svg>