<svg xmlns="http://www.w3.org/2000/svg" xmlns:svg="http://www.w3.org/2000/svg" xmlns:xlink="http://www.w3.org/1999/xlink" id="svg2" width="48" height="48" version="1.1"><defs id="defs4"><linearGradient id="linearGradient4761"><stop style="stop-color:#2e3436;stop-opacity:1" id="stop4763" offset="0"/><stop style="stop-color:#2e3436;stop-opacity:0" id="stop4765" offset="1"/></linearGradient><linearGradient id="linearGradient4379"><stop style="stop-color:#cfcfcf;stop-opacity:.49803922" id="stop4381" offset="0"/><stop style="stop-color:#2e3436;stop-opacity:0" id="stop4383" offset="1"/></linearGradient><linearGradient id="linearGradient4347"><stop style="stop-color:#eeeeec;stop-opacity:1" id="stop4349" offset="0"/><stop style="stop-color:#eeeeec;stop-opacity:0" id="stop4351" offset="1"/></linearGradient><linearGradient id="linearGradient4335"><stop style="stop-color:#eeeeec;stop-opacity:1" id="stop4337" offset="0"/><stop style="stop-color:#eeeeec;stop-opacity:0" id="stop4339" offset="1"/></linearGradient><linearGradient id="linearGradient4321"><stop style="stop-color:#fff;stop-opacity:1" id="stop4323" offset="0"/><stop style="stop-color:#fff;stop-opacity:0" id="stop4325" offset="1"/></linearGradient><linearGradient id="linearGradient4373" x1="20.78" x2="26.552" y1="1017.608" y2="1032.372" gradientUnits="userSpaceOnUse" xlink:href="#linearGradient4347"/><linearGradient id="linearGradient4375" x1="7.899" x2="16.648" y1="1026.114" y2="1046.347" gradientUnits="userSpaceOnUse" xlink:href="#linearGradient4335"/><radialGradient id="radialGradient4387" cx="24.091" cy="44.841" r="17.651" fx="24.091" fy="44.841" gradientTransform="matrix(1,0,0,0.08605852,0,40.9816)" gradientUnits="userSpaceOnUse" xlink:href="#linearGradient4379"/><filter id="filter4389" width="1.065" height="1.757" x="-.033" y="-.379"><feGaussianBlur id="feGaussianBlur4391" stdDeviation=".479"/></filter><linearGradient id="linearGradient4754" x1="7.899" x2="16.648" y1="1026.114" y2="1046.347" gradientTransform="translate(0,-2)" gradientUnits="userSpaceOnUse" xlink:href="#linearGradient4335"/><linearGradient id="linearGradient4758" x1="20.78" x2="26.552" y1="1017.608" y2="1032.372" gradientTransform="translate(0,-2)" gradientUnits="userSpaceOnUse" xlink:href="#linearGradient4347"/><linearGradient id="linearGradient4767" x1="34.561" x2="36.495" y1="1038.31" y2="1040.923" gradientUnits="userSpaceOnUse" xlink:href="#linearGradient4761"/><linearGradient id="linearGradient4769" x1="34.5" x2="36.434" y1="1030.932" y2="1033.484" gradientUnits="userSpaceOnUse" xlink:href="#linearGradient4761"/><linearGradient id="linearGradient4771" x1="19.939" x2="24.111" y1="1034.366" y2="1038.68" gradientUnits="userSpaceOnUse" xlink:href="#linearGradient4761"/><linearGradient id="linearGradient4773" x1="9.5" x2="11.495" y1="1038.371" y2="1041.044" gradientUnits="userSpaceOnUse" xlink:href="#linearGradient4761"/><linearGradient id="linearGradient4775" x1="9.439" x2="11.616" y1="1030.81" y2="1033.484" gradientUnits="userSpaceOnUse" xlink:href="#linearGradient4761"/></defs><metadata id="metadata7"/><g id="layer1" transform="translate(0,-1004.3622)"><path style="opacity:.75;fill:url(#radialGradient4387);fill-opacity:1;stroke:none;filter:url(#filter4389)" id="path4377" d="m 41.741772,44.840508 a 17.650633,1.5189873 0 1 1 -35.301266,0 17.650633,1.5189873 0 1 1 35.301266,0 z" transform="matrix(1.2394785,0,0,1,-5.7693105,1002.3622)"/><path id="path4343" d="m 19,1030.8622 10,0 0,-10 2,0 -7,-9 -7,9 2,0 z" style="fill:#c17d11;stroke:none"/><path style="fill:url(#linearGradient4758);fill-opacity:1;stroke:none" id="path4345" d="m 19,1030.8622 10,0 0,-10 2,0 -7,-9 -7,9 2,0 z"/><path style="fill:#e9b96e;stroke:none" id="path4331" d="m 7,1022.8622 0,6.0625 c 0,0.9228 0.6666667,0.6299 1,0.9375 l 0,14 c 0,1 0,1 1,1 l 30,0 c 1,0 1,0 1,-1 l 0,-14 c 0.333333,-0.3346 1,0 1,-1 l 0,-6 -1.5,0 0,2 -2.25,0 0,-2 -1.5,0 0,2 -2.25,0 0,-2 -1.5,0 0,6.0625 c 0,0.9228 0.666667,0.6299 1,0.9375 l 0,3 -18,0 0,-3 c 0.333333,-0.3346 1,0 1,-1 l 0,-6 -1.5,0 0,2 -2.25,0 0,-2 -1.5,0 0,2 -2.25,0 0,-2 z m 4.5,8.5 c 0.833253,0 1.5,1.3438 1.5,1.3438 l 0,2.6562 -3,0 0,-2.6562 c 0,0 0.666747,-1.3438 1.5,-1.3438 z m 25,0 c 0.833253,0 1.5,1.3438 1.5,1.3438 l 0,2.6562 -3,0 0,-2.6562 c 0,0 0.666746,-1.3438 1.5,-1.3438 z m -12.5,3.5 c 1.944428,0 3.5,2.6563 3.5,2.6563 l 0,5.3437 -7,0 0,-5.3437 c 0,0 1.555572,-2.6563 3.5,-2.6563 z m -12.5,4 c 0.833253,0 1.5,1.3438 1.5,1.3438 l 0,2.6562 -3,0 0,-2.6562 c 0,0 0.666747,-1.3438 1.5,-1.3438 z m 25,0 c 0.833253,0 1.5,1.3438 1.5,1.3438 l 0,2.6562 -3,0 0,-2.6562 c 0,0 0.666746,-1.3438 1.5,-1.3438 z"/><path id="path4333" d="m 7,1022.8622 0,6.0625 c 0,0.9228 0.6666667,0.6299 1,0.9375 l 0,14 c 0,1 0,1 1,1 l 30,0 c 1,0 1,0 1,-1 l 0,-14 c 0.333333,-0.3346 1,0 1,-1 l 0,-6 -1.5,0 0,2 -2.25,0 0,-2 -1.5,0 0,2 -2.25,0 0,-2 -1.5,0 0,6.0625 c 0,0.9228 0.666667,0.6299 1,0.9375 l 0,3 -18,0 0,-3 c 0.333333,-0.3346 1,0 1,-1 l 0,-6 -1.5,0 0,2 -2.25,0 0,-2 -1.5,0 0,2 -2.25,0 0,-2 z m 4.5,8.5 c 0.833253,0 1.5,1.3438 1.5,1.3438 l 0,2.6562 -3,0 0,-2.6562 c 0,0 0.666747,-1.3438 1.5,-1.3438 z m 25,0 c 0.833253,0 1.5,1.3438 1.5,1.3438 l 0,2.6562 -3,0 0,-2.6562 c 0,0 0.666746,-1.3438 1.5,-1.3438 z m -12.5,3.5 c 1.944428,0 3.5,2.6563 3.5,2.6563 l 0,5.3437 -7,0 0,-5.3437 c 0,0 1.555572,-2.6563 3.5,-2.6563 z m -12.5,4 c 0.833253,0 1.5,1.3438 1.5,1.3438 l 0,2.6562 -3,0 0,-2.6562 c 0,0 0.666747,-1.3438 1.5,-1.3438 z m 25,0 c 0.833253,0 1.5,1.3438 1.5,1.3438 l 0,2.6562 -3,0 0,-2.6562 c 0,0 0.666746,-1.3438 1.5,-1.3438 z" style="fill:url(#linearGradient4754);fill-opacity:1;stroke:none"/><path style="fill:none;stroke:#8f5902;stroke-width:1px;stroke-linecap:butt;stroke-linejoin:round;stroke-opacity:1" id="path4153" d="m 19,1030.8622 10,0 0,-10 2,0 -7,-9 -7,9 2,0 z"/><path style="fill:#ef2929;stroke:#a40000;stroke-width:1px;stroke-linecap:butt;stroke-linejoin:round;stroke-opacity:1" id="path4155" d="m 24,1010.3622 c 0,0 1.312816,0.5 2,0.5 0.687184,0 1.312816,-0.5 2,-0.5 0.687184,0 2,0.5 2,0.5 l 0,-2.5 c 0,0 -1.312816,-0.5 -2,-0.5 -0.687184,0 -1.312816,0.5 -2,0.5 -0.687184,0 -2,-0.5 -2,-0.5 z"/><path id="path4312" d="m 7,1022.8622 0,6.0625 c 0,0.9228 0.6666667,0.6299 1,0.9375 l 0,14 c 0,1 0,1 1,1 l 30,0 c 1,0 1,0 1,-1 l 0,-14 c 0.333333,-0.3346 1,0 1,-1 l 0,-6 -1.5,0 0,2 -2.25,0 0,-2 -1.5,0 0,2 -2.25,0 0,-2 -1.5,0 0,6.0625 c 0,0.9228 0.666667,0.6299 1,0.9375 l 0,3 -18,0 0,-3 c 0.333333,-0.3346 1,0 1,-1 l 0,-6 -1.5,0 0,2 -2.25,0 0,-2 -1.5,0 0,2 -2.25,0 0,-2 z m 4.5,8.5 c 0.833253,0 1.5,1.3438 1.5,1.3438 l 0,2.6562 -3,0 0,-2.6562 c 0,0 0.666747,-1.3438 1.5,-1.3438 z m 25,0 c 0.833253,0 1.5,1.3438 1.5,1.3438 l 0,2.6562 -3,0 0,-2.6562 c 0,0 0.666746,-1.3438 1.5,-1.3438 z m -12.5,3.5 c 1.944428,0 3.5,2.6563 3.5,2.6563 l 0,5.3437 -7,0 0,-5.3437 c 0,0 1.555572,-2.6563 3.5,-2.6563 z m -12.5,4 c 0.833253,0 1.5,1.3438 1.5,1.3438 l 0,2.6562 -3,0 0,-2.6562 c 0,0 0.666747,-1.3438 1.5,-1.3438 z m 25,0 c 0.833253,0 1.5,1.3438 1.5,1.3438 l 0,2.6562 -3,0 0,-2.6562 c 0,0 0.666746,-1.3438 1.5,-1.3438 z" style="fill:none;stroke:#c17d11;stroke-width:1px;stroke-linecap:round;stroke-linejoin:round;stroke-opacity:1"/><path id="path4179" d="m 10,1035.3622 0,-2.6669 c 0,0 0.666603,-1.3335 1.499856,-1.3335 0.833253,0 1.499856,1.3335 1.499856,1.3335 l 0,2.6669 z" style="fill:url(#linearGradient4775);stroke:#c17d11;stroke-width:1;stroke-linecap:butt;stroke-linejoin:round;stroke-miterlimit:4;stroke-opacity:1;stroke-dasharray:none;fill-opacity:1"/><path style="fill:url(#linearGradient4771);stroke:#c17d11;stroke-width:.99999994000000003;stroke-linecap:butt;stroke-linejoin:round;stroke-miterlimit:4;stroke-opacity:1;stroke-dasharray:none;fill-opacity:1" id="path4197" d="m 20.50003,1042.8622 0,-5.3333 c 0,0 1.555542,-2.6668 3.49997,-2.6668 1.944428,0 3.49997,2.6668 3.49997,2.6668 l 0,5.3333 z"/><path style="fill:url(#linearGradient4773);stroke:#c17d11;stroke-width:1;stroke-linecap:butt;stroke-linejoin:round;stroke-miterlimit:4;stroke-opacity:1;stroke-dasharray:none;fill-opacity:1" id="path4203" d="m 10,1042.8622 0,-2.6669 c 0,0 0.666603,-1.3335 1.499856,-1.3335 0.833253,0 1.499856,1.3335 1.499856,1.3335 l 0,2.6669 z"/><path style="fill:url(#linearGradient4769);stroke:#c17d11;stroke-width:1;stroke-linecap:butt;stroke-linejoin:round;stroke-miterlimit:4;stroke-opacity:1;stroke-dasharray:none;fill-opacity:1" id="path4225" d="m 35,1035.3622 0,-2.6669 c 0,0 0.666602,-1.3335 1.499856,-1.3335 0.833253,0 1.499856,1.3335 1.499856,1.3335 l 0,2.6669 z"/><path id="path4231" d="m 35,1042.8622 0,-2.6669 c 0,0 0.666602,-1.3335 1.499856,-1.3335 0.833253,0 1.499856,1.3335 1.499856,1.3335 l 0,2.6669 z" style="fill:url(#linearGradient4767);stroke:#c17d11;stroke-width:1;stroke-linecap:butt;stroke-linejoin:round;stroke-miterlimit:4;stroke-opacity:1;stroke-dasharray:none;fill-opacity:1"/></g></svg>