<svg xmlns="http://www.w3.org/2000/svg" xmlns:svg="http://www.w3.org/2000/svg" xmlns:xlink="http://www.w3.org/1999/xlink" id="svg2" width="48" height="48" version="1.1"><defs id="defs4"><linearGradient id="linearGradient4761"><stop style="stop-color:#2e3436;stop-opacity:1" id="stop4763" offset="0"/><stop style="stop-color:#2e3436;stop-opacity:0" id="stop4765" offset="1"/></linearGradient><linearGradient id="linearGradient4379"><stop style="stop-color:#cfcfcf;stop-opacity:.49803922" id="stop4381" offset="0"/><stop style="stop-color:#2e3436;stop-opacity:0" id="stop4383" offset="1"/></linearGradient><linearGradient id="linearGradient4347"><stop style="stop-color:#eeeeec;stop-opacity:1" id="stop4349" offset="0"/><stop style="stop-color:#eeeeec;stop-opacity:0" id="stop4351" offset="1"/></linearGradient><linearGradient id="linearGradient4335"><stop style="stop-color:#eeeeec;stop-opacity:1" id="stop4337" offset="0"/><stop style="stop-color:#eeeeec;stop-opacity:0" id="stop4339" offset="1"/></linearGradient><linearGradient id="linearGradient4321"><stop style="stop-color:#fff;stop-opacity:1" id="stop4323" offset="0"/><stop style="stop-color:#fff;stop-opacity:0" id="stop4325" offset="1"/></linearGradient><radialGradient id="radialGradient4387" cx="24.091" cy="44.841" r="17.651" fx="24.091" fy="44.841" gradientTransform="matrix(1,0,0,0.08605852,0,40.9816)" gradientUnits="userSpaceOnUse" xlink:href="#linearGradient4379"/><filter id="filter4389" width="1.065" height="1.757" x="-.033" y="-.379"><feGaussianBlur id="feGaussianBlur4391" stdDeviation=".479"/></filter><linearGradient id="linearGradient4754" x1="7.899" x2="16.648" y1="1026.114" y2="1046.347" gradientTransform="translate(0,-2)" gradientUnits="userSpaceOnUse" xlink:href="#linearGradient4335"/><linearGradient id="linearGradient4758" x1="20.78" x2="26.552" y1="1017.608" y2="1032.372" gradientTransform="translate(0,-2)" gradientUnits="userSpaceOnUse" xlink:href="#linearGradient4347"/><linearGradient id="linearGradient4767" x1="34.561" x2="36.495" y1="1038.31" y2="1040.923" gradientUnits="userSpaceOnUse" xlink:href="#linearGradient4761"/><linearGradient id="linearGradient4769" x1="34.5" x2="36.434" y1="1030.932" y2="1033.484" gradientUnits="userSpaceOnUse" xlink:href="#linearGradient4761"/><linearGradient id="linearGradient4771" x1="19.939" x2="24.111" y1="1034.366" y2="1038.68" gradientUnits="userSpaceOnUse" xlink:href="#linearGradient4761"/><linearGradient id="linearGradient4773" x1="9.5" x2="11.495" y1="1038.371" y2="1041.044" gradientUnits="userSpaceOnUse" xlink:href="#linearGradient4761"/><linearGradient id="linearGradient4775" x1="9.439" x2="11.616" y1="1030.81" y2="1033.484" gradientUnits="userSpaceOnUse" xlink:href="#linearGradient4761"/><linearGradient id="linearGradient1413" x1="10.391" x2="32.537" y1="5.382" y2="31.246" gradientTransform="scale(1.104397,0.905471)" gradientUnits="userSpaceOnUse" xlink:href="#linearGradient2253"/><linearGradient id="linearGradient1411" x1="8.113" x2="8.113" y1="88.509" y2="100.2" gradientTransform="scale(2.309851,0.432928)" gradientUnits="userSpaceOnUse" xlink:href="#linearGradient2752"/><linearGradient id="linearGradient1409" x1="8.113" x2="8.113" y1="88.509" y2="100.2" gradientTransform="scale(2.309851,0.432928)" gradientUnits="userSpaceOnUse" xlink:href="#linearGradient2752"/><linearGradient id="linearGradient2991" x1="-23.886" x2="-23.886" y1="49.953" y2="44.879" gradientTransform="scale(1.492875,0.669848)" gradientUnits="userSpaceOnUse" xlink:href="#linearGradient2985"/><linearGradient id="linearGradient2981" x1="18.317" x2="18.177" y1="48.643" y2="52.536" gradientTransform="scale(1.129863,0.885063)" gradientUnits="userSpaceOnUse" xlink:href="#linearGradient2245"/><linearGradient id="linearGradient2979" x1="10.391" x2="32.537" y1="5.382" y2="31.246" gradientTransform="scale(1.104397,0.905471)" gradientUnits="userSpaceOnUse" xlink:href="#linearGradient2253"/><linearGradient id="linearGradient2758" x1="8.113" x2="8.113" y1="88.509" y2="100.2" gradientTransform="scale(2.309851,0.432928)" gradientUnits="userSpaceOnUse" xlink:href="#linearGradient2752"/><linearGradient id="linearGradient2741" x1="13.629" x2="8.649" y1="101.285" y2="74.098" gradientTransform="matrix(2.143634,0,0,0.466498,1,-0.508826)" gradientUnits="userSpaceOnUse" xlink:href="#linearGradient2635"/><linearGradient id="linearGradient2733" x1="34.301" x2="35.521" y1="3.938" y2="3.845" gradientUnits="userSpaceOnUse" xlink:href="#linearGradient2711"/><linearGradient id="linearGradient2729" x1="34.301" x2="35.521" y1="3.938" y2="3.845" gradientUnits="userSpaceOnUse" xlink:href="#linearGradient2711"/><linearGradient id="linearGradient2725" x1="34.301" x2="35.521" y1="3.938" y2="3.845" gradientUnits="userSpaceOnUse" xlink:href="#linearGradient2711"/><linearGradient id="linearGradient2721" x1="34.301" x2="35.521" y1="3.938" y2="3.845" gradientUnits="userSpaceOnUse" xlink:href="#linearGradient2711"/><linearGradient id="linearGradient2717" x1="34.301" x2="35.521" y1="3.938" y2="3.845" gradientUnits="userSpaceOnUse" xlink:href="#linearGradient2711"/><linearGradient id="linearGradient2707" x1="12.207" x2="12.128" y1="53.535" y2="64.893" gradientTransform="scale(1.816345,0.550556)" gradientUnits="userSpaceOnUse" xlink:href="#linearGradient2701"/><linearGradient id="linearGradient2689" x1="3.707" x2="3.707" y1="171.291" y2="162.451" gradientTransform="matrix(5.705159,0,0,0.17528,1,-0.679373)" gradientUnits="userSpaceOnUse" xlink:href="#linearGradient2683"/><linearGradient id="linearGradient2681" x1="19.15" x2="16.316" y1="32.622" y2="8.867" gradientTransform="matrix(1.174139,0,0,0.945431,0.721825,-1.331524)" gradientUnits="userSpaceOnUse" xlink:href="#linearGradient2675"/><linearGradient id="linearGradient2673" x1="11.492" x2="17.199" y1="1.654" y2="26.729" gradientTransform="matrix(1.238977,0,0,0.895955,0.590553,-1.331524)" gradientUnits="userSpaceOnUse" xlink:href="#linearGradient2667"/><radialGradient id="radialGradient2659" cx="12.576" cy="67.502" r="8.766" fx="12.576" fy="67.502" gradientTransform="scale(1.925808,0.519262)" gradientUnits="userSpaceOnUse" xlink:href="#linearGradient2454"/><linearGradient id="linearGradient2655" x1="13.629" x2="8.649" y1="101.285" y2="74.098" gradientTransform="scale(2.143634,0.466498)" gradientUnits="userSpaceOnUse" xlink:href="#linearGradient2635"/><linearGradient id="linearGradient2653" x1="10.728" x2="10.728" y1="84.029" y2="92.571" gradientTransform="scale(1.983556,0.504145)" gradientUnits="userSpaceOnUse" xlink:href="#linearGradient2623"/><radialGradient id="radialGradient2464" cx="12.576" cy="67.502" r="8.766" fx="12.576" fy="67.502" gradientTransform="scale(1.925808,0.519262)" gradientUnits="userSpaceOnUse" xlink:href="#linearGradient2454"/><radialGradient id="radialGradient2460" cx="12.576" cy="67.502" r="8.766" fx="12.576" fy="67.502" gradientTransform="scale(1.925808,0.519262)" gradientUnits="userSpaceOnUse" xlink:href="#linearGradient2454"/><linearGradient id="linearGradient2445" x1="21.356" x2="19.995" y1="30.078" y2="-1.322" gradientTransform="matrix(1.027870,0.000000,0.000000,0.822296,1.523986,1.001198)" gradientUnits="userSpaceOnUse" xlink:href="#linearGradient2379"/><linearGradient id="linearGradient2421" x1="17.698" x2="34.975" y1="13.005" y2="55.201" gradientTransform="matrix(1.108069,0,0,0.902471,1,1)" gradientUnits="userSpaceOnUse" xlink:href="#linearGradient2415"/><linearGradient id="linearGradient2334" x1="16.119" x2="27.289" y1="10.842" y2="39.032" gradientTransform="matrix(1.289166,0.000000,0.000000,0.922731,-0.789284,-0.503380)" gradientUnits="userSpaceOnUse" xlink:href="#linearGradient2328"/><linearGradient id="linearGradient2313" x1="16.852" x2="24.419" y1="9.324" y2="53.735" gradientTransform="matrix(1.208393,0.000000,0.000000,0.984410,-0.789284,-0.503380)" gradientUnits="userSpaceOnUse" xlink:href="#linearGradient2307"/><linearGradient id="linearGradient2251" x1="8.612" x2="34.784" y1="7.229" y2="33.34" gradientTransform="matrix(1.129863,0,0,0.885063,-1.625,-1.304372)" gradientUnits="userSpaceOnUse" xlink:href="#linearGradient2245"/><linearGradient id="linearGradient2245"><stop id="stop2247" offset="0" style="stop-color:#dde1d9;stop-opacity:1"/><stop id="stop2249" offset="1" style="stop-color:#cacdc6;stop-opacity:1"/></linearGradient><linearGradient id="linearGradient2253"><stop id="stop2255" offset="0" style="stop-color:#8f8f8f;stop-opacity:1"/><stop id="stop2257" offset="1" style="stop-color:#494949;stop-opacity:1"/></linearGradient><linearGradient id="linearGradient2307"><stop id="stop2309" offset="0" style="stop-color:#5a7aa4;stop-opacity:1"/><stop id="stop2311" offset="1" style="stop-color:#5a7aa4;stop-opacity:0"/></linearGradient><linearGradient id="linearGradient2328"><stop id="stop2330" offset="0" style="stop-color:#fff;stop-opacity:1"/><stop id="stop2332" offset="1" style="stop-color:#fff;stop-opacity:0"/></linearGradient><linearGradient id="linearGradient2379"><stop id="stop2381" offset="0" style="stop-color:#1a4876;stop-opacity:1"/><stop id="stop2383" offset="1" style="stop-color:#3f54a3;stop-opacity:0"/></linearGradient><linearGradient id="linearGradient2415"><stop id="stop2417" offset="0" style="stop-color:#fff;stop-opacity:1"/><stop id="stop2419" offset="1" style="stop-color:#fff;stop-opacity:0"/></linearGradient><linearGradient id="linearGradient2454"><stop id="stop2456" offset="0" style="stop-color:#000;stop-opacity:1"/><stop id="stop2458" offset="1" style="stop-color:#000;stop-opacity:0"/></linearGradient><linearGradient id="linearGradient2623"><stop style="stop-color:#dfdfde;stop-opacity:1" id="stop2625" offset="0"/><stop style="stop-color:#9d9f9a;stop-opacity:1" id="stop2627" offset="1"/></linearGradient><linearGradient id="linearGradient2635"><stop style="stop-color:#f9fff5;stop-opacity:1" id="stop2637" offset="0"/><stop style="stop-color:#f9fff5;stop-opacity:0" id="stop2639" offset="1"/></linearGradient><linearGradient id="linearGradient2667"><stop style="stop-color:#fff;stop-opacity:1" id="stop2669" offset="0"/><stop style="stop-color:#fcfcff;stop-opacity:0" id="stop2671" offset="1"/></linearGradient><linearGradient id="linearGradient2675"><stop style="stop-color:#5b5b97;stop-opacity:1" id="stop2677" offset="0"/><stop style="stop-color:#1b1b43;stop-opacity:1" id="stop2679" offset="1"/></linearGradient><linearGradient id="linearGradient2683"><stop style="stop-color:#000;stop-opacity:1" id="stop2685" offset="0"/><stop style="stop-color:#000;stop-opacity:0" id="stop2687" offset="1"/></linearGradient><linearGradient id="linearGradient2691"><stop style="stop-color:#868686;stop-opacity:1" id="stop2693" offset="0"/><stop style="stop-color:#e9e9e9;stop-opacity:1" id="stop2695" offset="1"/></linearGradient><linearGradient id="linearGradient2701"><stop style="stop-color:#585956;stop-opacity:1" id="stop2703" offset="0"/><stop style="stop-color:#bbbeb8;stop-opacity:1" id="stop2705" offset="1"/></linearGradient><linearGradient id="linearGradient2711"><stop style="stop-color:#909090;stop-opacity:1" id="stop2713" offset="0"/><stop style="stop-color:#bebebe;stop-opacity:0" id="stop2715" offset="1"/></linearGradient><linearGradient id="linearGradient2752"><stop style="stop-color:#9d9d9d;stop-opacity:1" id="stop2754" offset="0"/><stop style="stop-color:#b9b9b9;stop-opacity:1" id="stop2756" offset="1"/></linearGradient><linearGradient id="linearGradient2985"><stop style="stop-color:#d8dfd6;stop-opacity:1" id="stop2987" offset="0"/><stop style="stop-color:#d8dfd6;stop-opacity:0" id="stop2989" offset="1"/></linearGradient><radialGradient id="radialGradient2580" cx="55" cy="125" r="14.375" fx="55" fy="125" gradientUnits="userSpaceOnUse" xlink:href="#linearGradient12512"/><linearGradient id="linearGradient12512"><stop style="stop-color:#fff;stop-opacity:1" id="stop12513" offset="0"/><stop style="stop-color:#fff520;stop-opacity:.89108908" id="stop12517" offset=".5"/><stop style="stop-color:#fff300;stop-opacity:0" id="stop12514" offset="1"/></linearGradient><linearGradient id="linearGradient5501" x1="13.629" x2="8.649" y1="101.285" y2="74.098" gradientTransform="matrix(2.143634,0,0,0.466498,0.18559025,1004.3039)" gradientUnits="userSpaceOnUse" xlink:href="#linearGradient2635"/><linearGradient id="linearGradient5504" x1="8.113" x2="8.113" y1="88.509" y2="100.2" gradientTransform="matrix(2.309851,0,0,0.432928,-0.81440975,1004.8127)" gradientUnits="userSpaceOnUse" xlink:href="#linearGradient2752"/><linearGradient id="linearGradient5507" x1="8.113" x2="8.113" y1="88.509" y2="100.2" gradientTransform="matrix(2.309851,0,0,0.432928,-0.81440975,1004.8127)" gradientUnits="userSpaceOnUse" xlink:href="#linearGradient2752"/><linearGradient id="linearGradient5510" x1="8.113" x2="8.113" y1="88.509" y2="100.2" gradientTransform="matrix(2.309851,0,0,0.432928,-0.81440975,1004.8127)" gradientUnits="userSpaceOnUse" xlink:href="#linearGradient2752"/><linearGradient id="linearGradient5516" x1="18.317" x2="18.177" y1="48.643" y2="52.536" gradientTransform="matrix(1.129863,0,0,0.885063,-0.81440975,1004.8127)" gradientUnits="userSpaceOnUse" xlink:href="#linearGradient2245"/><linearGradient id="linearGradient5518" x1="10.391" x2="32.537" y1="5.382" y2="31.246" gradientTransform="matrix(1.104397,0,0,0.905471,-0.81440975,1004.8127)" gradientUnits="userSpaceOnUse" xlink:href="#linearGradient2253"/><linearGradient id="linearGradient5522" x1="11.492" x2="17.199" y1="1.654" y2="26.729" gradientTransform="matrix(1.238977,0,0,0.895955,-0.22385675,1003.4812)" gradientUnits="userSpaceOnUse" xlink:href="#linearGradient2667"/><linearGradient id="linearGradient5525" x1="17.698" x2="34.975" y1="13.005" y2="55.201" gradientTransform="matrix(1.108069,0,0,0.902471,0.18559025,1005.8127)" gradientUnits="userSpaceOnUse" xlink:href="#linearGradient2415"/><linearGradient id="linearGradient5528" x1="3.707" x2="3.707" y1="171.291" y2="162.451" gradientTransform="matrix(5.705159,0,0,0.17528,0.18559025,1004.1333)" gradientUnits="userSpaceOnUse" xlink:href="#linearGradient2683"/><linearGradient id="linearGradient5531" x1="19.15" x2="16.316" y1="32.622" y2="8.867" gradientTransform="matrix(1.174139,0,0,0.945431,-0.09258475,1003.4812)" gradientUnits="userSpaceOnUse" xlink:href="#linearGradient2675"/><linearGradient id="linearGradient5534" x1="8.612" x2="34.784" y1="7.229" y2="33.34" gradientTransform="matrix(1.129863,0,0,0.885063,-2.4394098,1003.5083)" gradientUnits="userSpaceOnUse" xlink:href="#linearGradient2245"/><linearGradient id="linearGradient5536" x1="10.391" x2="32.537" y1="5.382" y2="31.246" gradientTransform="matrix(1.104397,0,0,0.905471,-0.81440975,1004.8127)" gradientUnits="userSpaceOnUse" xlink:href="#linearGradient2253"/><linearGradient id="linearGradient5539" x1="12.207" x2="12.128" y1="53.535" y2="64.893" gradientTransform="matrix(1.816345,0,0,0.550556,-0.81440975,1004.8127)" gradientUnits="userSpaceOnUse" xlink:href="#linearGradient2701"/></defs><metadata id="metadata7"/><g id="layer1" transform="translate(0,-1004.3622)"><path style="opacity:.75;fill:url(#radialGradient4387);fill-opacity:1;stroke:none;filter:url(#filter4389)" id="path4377" d="m 41.741772,44.840508 a 17.650633,1.5189873 0 1 1 -35.301266,0 17.650633,1.5189873 0 1 1 35.301266,0 z" transform="matrix(1.2394785,0,0,1.3922718,-5.7693105,983.36839)"/><path id="path4343" d="m 19,1030.8622 10,0 0,-10 2,0 -7,-9 -7,9 2,0 z" style="fill:#c17d11;stroke:none"/><path style="fill:url(#linearGradient4758);fill-opacity:1;stroke:none" id="path4345" d="m 19,1030.8622 10,0 0,-10 2,0 -7,-9 -7,9 2,0 z"/><path style="fill:#e9b96e;stroke:none" id="path4331" d="m 7,1022.8622 0,6.0625 c 0,0.9228 0.6666667,0.6299 1,0.9375 l 0,14 c 0,1 0,1 1,1 l 30,0 c 1,0 1,0 1,-1 l 0,-14 c 0.333333,-0.3346 1,0 1,-1 l 0,-6 -1.5,0 0,2 -2.25,0 0,-2 -1.5,0 0,2 -2.25,0 0,-2 -1.5,0 0,6.0625 c 0,0.9228 0.666667,0.6299 1,0.9375 l 0,3 -18,0 0,-3 c 0.333333,-0.3346 1,0 1,-1 l 0,-6 -1.5,0 0,2 -2.25,0 0,-2 -1.5,0 0,2 -2.25,0 0,-2 z m 4.5,8.5 c 0.833253,0 1.5,1.3438 1.5,1.3438 l 0,2.6562 -3,0 0,-2.6562 c 0,0 0.666747,-1.3438 1.5,-1.3438 z m 25,0 c 0.833253,0 1.5,1.3438 1.5,1.3438 l 0,2.6562 -3,0 0,-2.6562 c 0,0 0.666746,-1.3438 1.5,-1.3438 z m -12.5,3.5 c 1.944428,0 3.5,2.6563 3.5,2.6563 l 0,5.3437 -7,0 0,-5.3437 c 0,0 1.555572,-2.6563 3.5,-2.6563 z m -12.5,4 c 0.833253,0 1.5,1.3438 1.5,1.3438 l 0,2.6562 -3,0 0,-2.6562 c 0,0 0.666747,-1.3438 1.5,-1.3438 z m 25,0 c 0.833253,0 1.5,1.3438 1.5,1.3438 l 0,2.6562 -3,0 0,-2.6562 c 0,0 0.666746,-1.3438 1.5,-1.3438 z"/><path id="path4333" d="m 7,1022.8622 0,6.0625 c 0,0.9228 0.6666667,0.6299 1,0.9375 l 0,14 c 0,1 0,1 1,1 l 30,0 c 1,0 1,0 1,-1 l 0,-14 c 0.333333,-0.3346 1,0 1,-1 l 0,-6 -1.5,0 0,2 -2.25,0 0,-2 -1.5,0 0,2 -2.25,0 0,-2 -1.5,0 0,6.0625 c 0,0.9228 0.666667,0.6299 1,0.9375 l 0,3 -18,0 0,-3 c 0.333333,-0.3346 1,0 1,-1 l 0,-6 -1.5,0 0,2 -2.25,0 0,-2 -1.5,0 0,2 -2.25,0 0,-2 z m 4.5,8.5 c 0.833253,0 1.5,1.3438 1.5,1.3438 l 0,2.6562 -3,0 0,-2.6562 c 0,0 0.666747,-1.3438 1.5,-1.3438 z m 25,0 c 0.833253,0 1.5,1.3438 1.5,1.3438 l 0,2.6562 -3,0 0,-2.6562 c 0,0 0.666746,-1.3438 1.5,-1.3438 z m -12.5,3.5 c 1.944428,0 3.5,2.6563 3.5,2.6563 l 0,5.3437 -7,0 0,-5.3437 c 0,0 1.555572,-2.6563 3.5,-2.6563 z m -12.5,4 c 0.833253,0 1.5,1.3438 1.5,1.3438 l 0,2.6562 -3,0 0,-2.6562 c 0,0 0.666747,-1.3438 1.5,-1.3438 z m 25,0 c 0.833253,0 1.5,1.3438 1.5,1.3438 l 0,2.6562 -3,0 0,-2.6562 c 0,0 0.666746,-1.3438 1.5,-1.3438 z" style="fill:url(#linearGradient4754);fill-opacity:1;stroke:none"/><path style="fill:none;stroke:#8f5902;stroke-width:1px;stroke-linecap:butt;stroke-linejoin:round;stroke-opacity:1" id="path4153" d="m 19,1030.8622 10,0 0,-10 2,0 -7,-9 -7,9 2,0 z"/><path style="fill:#ef2929;stroke:#a40000;stroke-width:1px;stroke-linecap:butt;stroke-linejoin:round;stroke-opacity:1" id="path4155" d="m 24,1010.3622 c 0,0 1.312816,0.5 2,0.5 0.687184,0 1.312816,-0.5 2,-0.5 0.687184,0 2,0.5 2,0.5 l 0,-2.5 c 0,0 -1.312816,-0.5 -2,-0.5 -0.687184,0 -1.312816,0.5 -2,0.5 -0.687184,0 -2,-0.5 -2,-0.5 z"/><path id="path4312" d="m 7,1022.8622 0,6.0625 c 0,0.9228 0.6666667,0.6299 1,0.9375 l 0,14 c 0,1 0,1 1,1 l 30,0 c 1,0 1,0 1,-1 l 0,-14 c 0.333333,-0.3346 1,0 1,-1 l 0,-6 -1.5,0 0,2 -2.25,0 0,-2 -1.5,0 0,2 -2.25,0 0,-2 -1.5,0 0,6.0625 c 0,0.9228 0.666667,0.6299 1,0.9375 l 0,3 -18,0 0,-3 c 0.333333,-0.3346 1,0 1,-1 l 0,-6 -1.5,0 0,2 -2.25,0 0,-2 -1.5,0 0,2 -2.25,0 0,-2 z m 4.5,8.5 c 0.833253,0 1.5,1.3438 1.5,1.3438 l 0,2.6562 -3,0 0,-2.6562 c 0,0 0.666747,-1.3438 1.5,-1.3438 z m 25,0 c 0.833253,0 1.5,1.3438 1.5,1.3438 l 0,2.6562 -3,0 0,-2.6562 c 0,0 0.666746,-1.3438 1.5,-1.3438 z m -12.5,3.5 c 1.944428,0 3.5,2.6563 3.5,2.6563 l 0,5.3437 -7,0 0,-5.3437 c 0,0 1.555572,-2.6563 3.5,-2.6563 z m -12.5,4 c 0.833253,0 1.5,1.3438 1.5,1.3438 l 0,2.6562 -3,0 0,-2.6562 c 0,0 0.666747,-1.3438 1.5,-1.3438 z m 25,0 c 0.833253,0 1.5,1.3438 1.5,1.3438 l 0,2.6562 -3,0 0,-2.6562 c 0,0 0.666746,-1.3438 1.5,-1.3438 z" style="fill:none;stroke:#c17d11;stroke-width:1px;stroke-linecap:round;stroke-linejoin:round;stroke-opacity:1"/><path id="path4179" d="m 10,1035.3622 0,-2.6669 c 0,0 0.666603,-1.3335 1.499856,-1.3335 0.833253,0 1.499856,1.3335 1.499856,1.3335 l 0,2.6669 z" style="fill:url(#linearGradient4775);stroke:#c17d11;stroke-width:1;stroke-linecap:butt;stroke-linejoin:round;stroke-miterlimit:4;stroke-opacity:1;stroke-dasharray:none;fill-opacity:1"/><path style="fill:url(#linearGradient4771);stroke:#c17d11;stroke-width:.99999994000000003;stroke-linecap:butt;stroke-linejoin:round;stroke-miterlimit:4;stroke-opacity:1;stroke-dasharray:none;fill-opacity:1" id="path4197" d="m 20.50003,1042.8622 0,-5.3333 c 0,0 1.555542,-2.6668 3.49997,-2.6668 1.944428,0 3.49997,2.6668 3.49997,2.6668 l 0,5.3333 z"/><path style="fill:url(#linearGradient4773);stroke:#c17d11;stroke-width:1;stroke-linecap:butt;stroke-linejoin:round;stroke-miterlimit:4;stroke-opacity:1;stroke-dasharray:none;fill-opacity:1" id="path4203" d="m 10,1042.8622 0,-2.6669 c 0,0 0.666603,-1.3335 1.499856,-1.3335 0.833253,0 1.499856,1.3335 1.499856,1.3335 l 0,2.6669 z"/><path style="fill:url(#linearGradient4769);stroke:#c17d11;stroke-width:1;stroke-linecap:butt;stroke-linejoin:round;stroke-miterlimit:4;stroke-opacity:1;stroke-dasharray:none;fill-opacity:1" id="path4225" d="m 35,1035.3622 0,-2.6669 c 0,0 0.666602,-1.3335 1.499856,-1.3335 0.833253,0 1.499856,1.3335 1.499856,1.3335 l 0,2.6669 z"/><path id="path4231" d="m 35,1042.8622 0,-2.6669 c 0,0 0.666602,-1.3335 1.499856,-1.3335 0.833253,0 1.499856,1.3335 1.499856,1.3335 l 0,2.6669 z" style="fill:url(#linearGradient4767);stroke:#c17d11;stroke-width:1;stroke-linecap:butt;stroke-linejoin:round;stroke-miterlimit:4;stroke-opacity:1;stroke-dasharray:none;fill-opacity:1"/><path id="path12511" d="m 69.375,125 a 14.375,14.375 0 1 1 -28.75,0 14.375,14.375 0 1 1 28.75,0 z" transform="matrix(0.611127,0,0,0.611127,4.4201313,937.16829)" style="fill:url(#radialGradient2580);fill-opacity:1;fill-rule:nonzero;stroke:none;stroke-width:1.25000024;marker:none;visibility:visible;display:block"/></g></svg>