<svg xmlns="http://www.w3.org/2000/svg" xmlns:svg="http://www.w3.org/2000/svg" xmlns:xlink="http://www.w3.org/1999/xlink" id="svg2108" width="48" height="48" version="1.1"><defs id="defs3"><linearGradient id="linearGradient4356"><stop style="stop-color:#000;stop-opacity:1" id="stop4358" offset="0"/><stop style="stop-color:#000;stop-opacity:0" id="stop4360" offset="1"/></linearGradient><linearGradient id="linearGradient4344"><stop style="stop-color:#727e0a;stop-opacity:1" id="stop4346" offset="0"/><stop style="stop-color:#5b6508;stop-opacity:1" id="stop4348" offset="1"/></linearGradient><linearGradient id="linearGradient4338"><stop id="stop4340" offset="0" style="stop-color:#e9b15e;stop-opacity:1"/><stop id="stop4342" offset="1" style="stop-color:#966416;stop-opacity:1"/></linearGradient><linearGradient id="linearGradient4163"><stop style="stop-color:#3b74bc;stop-opacity:1" id="stop4165" offset="0"/><stop style="stop-color:#2d5990;stop-opacity:1" id="stop4167" offset="1"/></linearGradient><linearGradient id="linearGradient3824"><stop style="stop-color:#fff;stop-opacity:1" id="stop3826" offset="0"/><stop style="stop-color:#c9c9c9;stop-opacity:1" id="stop3828" offset="1"/></linearGradient><linearGradient id="linearGradient3816"><stop style="stop-color:#000;stop-opacity:1" id="stop3818" offset="0"/><stop style="stop-color:#000;stop-opacity:0" id="stop3820" offset="1"/></linearGradient><linearGradient id="linearGradient3800"><stop style="stop-color:#f4d9b1;stop-opacity:1" id="stop3802" offset="0"/><stop style="stop-color:#df9725;stop-opacity:1" id="stop3804" offset="1"/></linearGradient><radialGradient id="radialGradient3806" cx="29.345" cy="17.064" r="9.162" fx="29.345" fy="17.064" gradientUnits="userSpaceOnUse" xlink:href="#linearGradient3800"/><radialGradient id="radialGradient3822" cx="31.113" cy="19.009" r="8.662" fx="31.113" fy="19.009" gradientUnits="userSpaceOnUse" xlink:href="#linearGradient3816"/><linearGradient id="linearGradient3830" x1="30.936" x2="30.936" y1="29.553" y2="35.803" gradientTransform="translate(-15.286624,-8.3312102)" gradientUnits="userSpaceOnUse" xlink:href="#linearGradient3824"/><radialGradient id="radialGradient4169" cx="28.09" cy="27.203" r="13.565" fx="28.09" fy="27.203" gradientTransform="matrix(1.297564,0,0,0.884831,-23.645129,-3.3907412)" gradientUnits="userSpaceOnUse" xlink:href="#linearGradient4163"/><radialGradient id="radialGradient4171" cx="29.345" cy="17.064" r="9.162" fx="29.345" fy="17.064" gradientTransform="matrix(0.787998,0,0,0.787998,6.221198,3.617627)" gradientUnits="userSpaceOnUse" xlink:href="#linearGradient3800"/><linearGradient id="linearGradient4175" x1="30.936" x2="30.936" y1="29.553" y2="35.803" gradientTransform="translate(0.707108,0.000000)" gradientUnits="userSpaceOnUse" xlink:href="#linearGradient3824"/><radialGradient id="radialGradient4179" cx="31.113" cy="19.009" r="8.662" fx="31.113" fy="19.009" gradientUnits="userSpaceOnUse" xlink:href="#linearGradient3816"/><linearGradient id="linearGradient4326" x1="30.936" x2="30.936" y1="29.553" y2="35.803" gradientTransform="translate(-12.41789,-7.000000)" gradientUnits="userSpaceOnUse" xlink:href="#linearGradient3824"/><radialGradient id="radialGradient4328" cx="29.345" cy="17.064" r="9.162" fx="29.345" fy="17.064" gradientTransform="matrix(0.787998,3.877637e-16,-3.877637e-16,0.787998,6.221198,3.617627)" gradientUnits="userSpaceOnUse" xlink:href="#linearGradient4338"/><radialGradient id="radialGradient4330" cx="31.113" cy="19.009" r="8.662" fx="31.113" fy="19.009" gradientUnits="userSpaceOnUse" xlink:href="#linearGradient3816"/><linearGradient id="linearGradient4332" x1="30.936" x2="30.936" y1="29.553" y2="35.803" gradientTransform="translate(-13.12500,-7.000000)" gradientUnits="userSpaceOnUse" xlink:href="#linearGradient3824"/><radialGradient id="radialGradient4336" cx="31.113" cy="19.009" r="8.662" fx="31.113" fy="19.009" gradientUnits="userSpaceOnUse" xlink:href="#linearGradient3816"/><radialGradient id="radialGradient4350" cx="16.215" cy="19.836" r="13.565" fx="16.215" fy="19.836" gradientTransform="matrix(1.000000,0.000000,0.000000,0.681917,0.000000,8.233773)" gradientUnits="userSpaceOnUse" xlink:href="#linearGradient4344"/><linearGradient id="linearGradient4362" x1="20.662" x2="22.627" y1="35.818" y2="36.218" gradientTransform="matrix(0.983375,0.181588,-0.181588,0.983375,-9.0549084,-10.982676)" gradientUnits="userSpaceOnUse" xlink:href="#linearGradient4356"/><linearGradient id="linearGradient4366" x1="22.687" x2="21.408" y1="36.39" y2="35.74" gradientTransform="matrix(-0.977685,0.210075,0.210075,0.977685,39.822976,-12.276419)" gradientUnits="userSpaceOnUse" xlink:href="#linearGradient4356"/><linearGradient id="linearGradient4372" x1="20.662" x2="22.627" y1="35.818" y2="36.218" gradientTransform="matrix(0.983375,0.181588,-0.181588,0.983375,-7.072120,-9.824920)" gradientUnits="userSpaceOnUse" xlink:href="#linearGradient4356"/><linearGradient id="linearGradient4374" x1="22.687" x2="21.408" y1="36.39" y2="35.74" gradientTransform="matrix(-0.977685,0.210075,0.210075,0.977685,41.80576,-11.11866)" gradientUnits="userSpaceOnUse" xlink:href="#linearGradient4356"/><linearGradient id="linearGradient1366" x1="22.687" x2="21.408" y1="36.39" y2="35.74" gradientTransform="matrix(-0.977685,0.210075,0.210075,0.977685,41.80576,-11.11866)" gradientUnits="userSpaceOnUse" xlink:href="#linearGradient4356"/><linearGradient id="linearGradient1369" x1="20.662" x2="22.627" y1="35.818" y2="36.218" gradientTransform="matrix(0.983375,0.181588,-0.181588,0.983375,-7.072120,-9.824920)" gradientUnits="userSpaceOnUse" xlink:href="#linearGradient4356"/><linearGradient id="linearGradient1372" x1="30.936" x2="30.936" y1="29.553" y2="35.803" gradientTransform="translate(-12.41789,-7.000000)" gradientUnits="userSpaceOnUse" xlink:href="#linearGradient3824"/><radialGradient id="radialGradient1381" cx="16.215" cy="19.836" r="13.565" fx="16.215" fy="19.836" gradientTransform="matrix(1.000000,0.000000,0.000000,0.681917,0.000000,8.233773)" gradientUnits="userSpaceOnUse" xlink:href="#linearGradient4344"/><radialGradient id="radialGradient3071" cx="28.09" cy="27.203" r="13.565" fx="28.09" fy="27.203" gradientTransform="matrix(1.297564,0,0,0.884831,-23.645129,-3.3907412)" gradientUnits="userSpaceOnUse" xlink:href="#linearGradient4163"/><linearGradient id="linearGradient3073" x1="30.936" x2="30.936" y1="29.553" y2="35.803" gradientTransform="translate(-15.286624,-8.3312102)" gradientUnits="userSpaceOnUse" xlink:href="#linearGradient3824"/><radialGradient id="radialGradient3075" cx="31.113" cy="19.009" r="8.662" fx="31.113" fy="19.009" gradientUnits="userSpaceOnUse" xlink:href="#linearGradient3816"/><radialGradient id="radialGradient3077" cx="29.345" cy="17.064" r="9.162" fx="29.345" fy="17.064" gradientTransform="matrix(0.787998,0,0,0.787998,6.221198,3.617627)" gradientUnits="userSpaceOnUse" xlink:href="#linearGradient3800"/><linearGradient id="linearGradient3079" x1="20.662" x2="22.627" y1="35.818" y2="36.218" gradientTransform="matrix(0.983375,0.181588,-0.181588,0.983375,-9.0549084,-10.982676)" gradientUnits="userSpaceOnUse" xlink:href="#linearGradient4356"/><linearGradient id="linearGradient3081" x1="22.687" x2="21.408" y1="36.39" y2="35.74" gradientTransform="matrix(-0.977685,0.210075,0.210075,0.977685,39.822976,-12.276419)" gradientUnits="userSpaceOnUse" xlink:href="#linearGradient4356"/></defs><metadata id="metadata4"/><g id="layer2" style="display:inline"><path style="color:#000;fill:url(#radialGradient4179);fill-opacity:1;fill-rule:evenodd;stroke:none;stroke-width:1px;marker:none;visibility:visible;display:inline;overflow:visible" id="path4306" d="m 39.774755,19.008621 a 8.6620579,8.6620579 0 1 1 -17.324115,0 8.6620579,8.6620579 0 1 1 17.324115,0 z" transform="matrix(1.77551,0,0,0.583984,-39.539844,19.94735)"/><g id="g3059" transform="matrix(1.3162878,0,0,1.3162878,3.3630865,0.75423827)"><path id="path4308" d="m 10.69955,33.304829 10.606602,0 c 3.005204,0 5.980484,-1.101932 7.071067,-4.242641 1.035639,-2.982476 0.176777,-8.662058 -6.540737,-13.258252 l -12.5511462,0 c -6.717514,4.24264 -7.556991,10.044831 -6.010407,13.435028 1.575595,3.45379 4.24264,4.065865 7.4246212,4.065865 z" style="color:#000;fill:url(#radialGradient3071);fill-opacity:1;fill-rule:evenodd;stroke:#204a87;stroke-width:.75971228px;stroke-linecap:round;stroke-linejoin:round;stroke-miterlimit:4;stroke-opacity:1;stroke-dasharray:none;stroke-dashoffset:0;marker:none;visibility:visible;display:inline;overflow:visible"/><path id="path4310" d="m 11.406657,17.394926 c 3.18198,2.828427 4.596194,13.081476 4.596194,13.081476 0,0 1.414213,-10.253048 3.889087,-13.258252 l -8.485281,0.176776 z" style="color:#000;fill:url(#linearGradient3073);fill-opacity:1;fill-rule:evenodd;stroke:none;stroke-width:1px;marker:none;visibility:visible;display:inline;overflow:visible"/><path style="color:#000;fill:#729fcf;fill-opacity:1;fill-rule:evenodd;stroke:none;stroke-width:1px;marker:none;visibility:visible;display:inline;overflow:visible" id="path4312" d="m 13.686097,18.455587 c 0,0 -2.151323,1.660335 -1.965991,3.660533 C 9.6788798,20.315326 9.6202328,16.864596 9.6202328,16.864596 l 4.0658642,1.590991 z"/><path style="opacity:.21518986;color:#000;fill:none;stroke:#fff;stroke-width:.7597121px;stroke-linecap:round;stroke-linejoin:round;stroke-miterlimit:4;stroke-opacity:1;stroke-dasharray:none;stroke-dashoffset:0;marker:none;visibility:visible;display:inline;overflow:visible" id="path4314" d="m 10.628238,32.262723 10.493447,-0.0221 c 2.639723,0 5.253161,-0.967919 6.211112,-3.726667 0.909689,-2.61976 -0.09472,-7.608614 -5.995279,-11.645837 L 9.8127928,16.625054 c -5.900557,3.726667 -7.04262,8.823219 -5.662029,12.044182 1.380592,3.220963 3.395211,3.57139 6.4774742,3.593487 z"/><path id="path4316" d="m 18.124171,18.455587 c 0,0 2.151323,1.660335 1.965991,3.660533 2.041226,-1.800794 2.099873,-5.251524 2.099873,-5.251524 l -4.065864,1.590991 z" style="color:#000;fill:#729fcf;fill-opacity:1;fill-rule:evenodd;stroke:none;stroke-width:1px;marker:none;visibility:visible;display:inline;overflow:visible"/><path style="color:#000;fill:url(#radialGradient3075);fill-opacity:1;fill-rule:evenodd;stroke:none;stroke-width:1px;marker:none;visibility:visible;display:inline;overflow:visible" id="path4318" d="m 39.774755,19.008621 c 0,4.783923 -3.878135,8.662058 -8.662057,8.662058 -4.783923,0 -8.662058,-3.878135 -8.662058,-8.662058 0,-4.783922 3.878135,-8.662058 8.662058,-8.662058 4.783922,0 8.662057,3.878136 8.662057,8.662058 z" transform="translate(-15.411624,-4.8312102)"/><path id="path4320" d="m 39.774755,19.008621 c 0,4.783923 -3.878135,8.662058 -8.662057,8.662058 -4.783923,0 -8.662058,-3.878135 -8.662058,-8.662058 0,-4.783922 3.878135,-8.662058 8.662058,-8.662058 4.783922,0 8.662057,3.878136 8.662057,8.662058 z" transform="translate(-15.286624,-8.3312102)" style="color:#000;fill:url(#radialGradient3077);fill-opacity:1;fill-rule:evenodd;stroke:#c17d11;stroke-width:.75971228px;stroke-linecap:round;stroke-linejoin:round;stroke-miterlimit:4;stroke-opacity:1;stroke-dasharray:none;stroke-dashoffset:0;marker:none;visibility:visible;display:inline;overflow:visible"/><path style="opacity:.19620254;color:#000;fill:none;stroke:#fff;stroke-width:.86616945px;stroke-linecap:round;stroke-linejoin:round;stroke-miterlimit:4;stroke-opacity:1;stroke-dasharray:none;stroke-dashoffset:0;marker:none;visibility:visible;display:inline;overflow:visible" id="path4322" d="m 39.774755,19.008621 c 0,4.783923 -3.878135,8.662058 -8.662057,8.662058 -4.783923,0 -8.662058,-3.878135 -8.662058,-8.662058 0,-4.783922 3.878135,-8.662058 8.662058,-8.662058 4.783922,0 8.662057,3.878136 8.662057,8.662058 z" transform="matrix(0.877095,0,0,0.877095,-11.462697,-5.9949432)"/><path id="path4354" d="m 6.5651658,32.443987 c -1.247607,-0.544969 -1.805994,-1.858277 -1.805994,-1.858277 0.841281,-4.069136 3.719925,-7.046216 3.719925,-7.046216 0,0 -2.279321,6.411514 -1.913931,8.904493 z" style="opacity:.22784807;color:#000;fill:url(#linearGradient3079);fill-opacity:1;fill-rule:evenodd;stroke:none;stroke-width:1px;marker:none;visibility:visible;display:inline;overflow:visible"/><path style="opacity:.22784807;color:#000;fill:url(#linearGradient3081);fill-opacity:1;fill-rule:evenodd;stroke:none;stroke-width:1px;marker:none;visibility:visible;display:inline;overflow:visible" id="path4364" d="m 25.470873,31.585636 c 1.231251,-0.580978 1.80438,-2.002321 1.80438,-2.002321 -0.95912,-4.042983 -3.976149,-6.842821 -3.976149,-6.842821 0,0 2.464593,6.342602 2.171769,8.845142 z"/></g><g id="g3054" transform="translate(-0.38216591,-4.5087952)"><rect id="rect3048" width="43.873" height="10.777" x="2.446" y="33.86" style="fill:#fff;fill-opacity:1;stroke:#000;stroke-width:.99999994"/><text id="text3050" x="1.034" y="50.137" xml:space="preserve" style="font-size:20.25994301px;font-style:italic;font-variant:normal;font-weight:700;font-stretch:normal;line-height:125%;letter-spacing:0;word-spacing:0;fill:#000;fill-opacity:1;stroke:none;font-family:Alte Haas Grotesk;-inkscape-font-specification:Sans Italic"><tspan id="tspan3052" x="1.034" y="50.137">*****</tspan></text></g></g></svg>